<?xml version="1.0" encoding="UTF-8"?>
<svg id="Camada_1" xmlns="http://www.w3.org/2000/svg" viewBox="0 0 430.89 654.55">
  <defs>
    <style>
      .cls-1 {
        fill: #c9e543;
      }
    </style>
  </defs>
  <path class="cls-1" d="M385.91,194.35l-.25-1.02c-3.52-14.02-8.79-27.58-15.66-40.31l-.55-1.01c-7.18-13.11-16.06-25.3-26.37-36.23l-.96-1.01c-12.63-13.17-27.12-24.24-43.07-32.91l-1.66-.88c-20.68-10.95-43-17.54-66.28-19.58-4.05-.46-8.08-.69-11.99-.69h-.57c-.19,0-.39,0-.59,0h-.79c-.12,0-.25,0-.37,0h-.66s-.49,0-.49,0h-.78s-3.1,0-3.1,0c-3.91,0-7.95.23-11.95.69-23.33,2.04-45.64,8.64-66.33,19.59l-1.65.87c-15.95,8.67-30.45,19.74-43.07,32.91l-.96,1.01c-10.3,10.92-19.18,23.11-26.37,36.23l-.55,1.01c-6.87,12.73-12.14,26.3-15.65,40.31l-.25,1.02c-3.33,13.59-5.01,27.6-5.01,41.64,0,1.06.02,2.11.04,3.15v1.08c.37,15.07,2.67,30.02,6.84,44.43l.31,1.02c3.08,10.41,7.15,20.53,12.12,30.21,46.05,115.95,155.76,277.94,155.76,277.94,0,0,102.94-152.13,150.47-267.03.04-.06.08-.12.11-.18l.61-1.03c7.48-12.54,13.37-25.96,17.5-39.91l.31-1.02c4.17-14.41,6.47-29.36,6.83-44.43l.02-1.6c.02-.88.03-1.76.03-2.64,0-14.04-1.69-28.05-5.01-41.64ZM217.88,389.53v-33.56c10.37.02,20.7.2,30.74.53l1.04.03c9.85.33,19.57.81,28.92,1.43-6.98,13.44-14.97,24.38-23.76,32.56-5.91-.31-11.89-.54-17.81-.71l-1.1-.03c-6.01-.15-12.06-.24-18.01-.26ZM217.88,317.94c12.71.02,25.4.19,37.73.52l1.07.03c12.75.35,25.11.86,36.78,1.53-3.51,12.13-7.78,23.41-12.7,33.57-9.85-.67-20.19-1.18-30.74-1.53l-1.04-.04c-10.18-.33-20.63-.5-31.1-.52v-33.56ZM256.91,314.06l-1.07-.03c-12.55-.34-25.31-.53-37.97-.55v-33.57c14.17.01,28.13.12,41.53.32l1.07.02c14.42.22,28.26.54,41.18.96-1.67,11.92-4.02,23.49-6.98,34.45-12.09-.7-24.79-1.24-37.77-1.6ZM257.61,160.8l-1.07.03c-12.57.35-25.57.53-38.67.55v-33.56c11.07-.02,22.08-.22,32.74-.58l1.05-.03c11.12-.39,22-.97,32.35-1.71,4.47,10.33,8.31,21.65,11.42,33.69-12,.71-24.71,1.25-37.82,1.62ZM251.31,122.72l-1.04.04c-10.59.37-21.48.56-32.4.59v-33.56c7.17-.02,14.37-.14,21.44-.36l1.07-.03c7.12-.23,14.22-.56,21.11-.99,7.66,8.81,14.56,19.79,20.55,32.7-9.93.7-20.26,1.24-30.74,1.61ZM217.88,165.83c13.12-.02,26.19-.2,38.89-.55l1.07-.03c13.47-.38,26.48-.94,38.69-1.68,2.64,11.02,4.68,22.61,6.06,34.5-13.09.43-27.1.76-41.68.99l-1.06.02c-13.58.2-27.69.31-41.96.32v-33.56ZM259.94,203.54l1.07-.02c14.76-.23,28.9-.56,42.06-1,1.12,10.98,1.68,22.23,1.68,33.47,0,.48,0,.95,0,1.43h-86.87v-33.56c14.22-.01,28.36-.12,42.07-.32ZM217.88,241.89h86.83c-.21,11.78-1.03,23.5-2.46,34.87-13.1-.43-27.1-.76-41.66-.98l-1.07-.02c-13.58-.2-27.58-.31-41.65-.32v-33.56ZM217.88,406.76v-12.77c5.75.02,11.58.1,17.35.25l1.12.03c4.52.12,9.06.29,13.54.49-8.85,6.96-18.15,10.94-27.61,11.84l-4.4.16ZM256.36,395.08c5.17.28,10.31.62,15.3,1.01l1.88.15c.35.03.7.06,1.05.08-8.55,3.15-17.37,5.62-26.26,7.34l-4.85.68c4.41-2.45,8.72-5.55,12.89-9.27ZM273.58,391.76c-4.23-.34-8.52-.64-12.79-.9,8.35-8.52,15.93-19.46,22.57-32.57,9.94.72,19.54,1.61,28.54,2.63l1.23.14c5.67.66,11.15,1.38,16.36,2.16-13.65,12.23-29.04,22.12-45.78,29.42-2.74-.26-5.51-.51-8.31-.75l-1.81-.15h0ZM314.33,356.64l-1.22-.14c-8.68-.99-17.96-1.86-27.62-2.57,4.84-10.24,9.04-21.54,12.5-33.64,13.12.81,25.35,1.81,36.39,2.99l4.32.48c7.96.91,15.2,1.92,21.58,3.01-7.47,11.86-16.38,22.78-26.53,32.5-6.15-.96-12.68-1.85-19.43-2.63ZM306.13,281.35c11.87.41,22.86.91,32.7,1.47,2.99.17,5.8.34,8.44.52l1.07.07c13.21.89,23.46,1.88,30.52,2.97-3.91,12.65-9.31,24.83-16.06,36.26-8.47-1.44-26.77-3.66-27.58-3.76h-.02c-10.8-1.15-22.89-2.14-35.99-2.95,2.94-11.03,5.27-22.64,6.93-34.58ZM348.79,278.97l-1.07-.07c-2.71-.18-5.58-.36-8.63-.53-9.79-.56-20.68-1.05-32.38-1.46,1.43-11.45,2.25-23.22,2.45-35.02h77.19c-.46,13.62-2.55,27.12-6.21,40.18-7.09-1.14-17.62-2.18-31.35-3.1ZM386.45,237.42h-77.24c0-.48,0-.95,0-1.43,0-11.31-.56-22.61-1.68-33.62,11.33-.4,21.93-.88,31.55-1.43,3.58-.2,6.9-.41,10-.62l1.06-.07c14.27-.98,24.94-2.09,31.79-3.31,3,12.77,4.52,25.9,4.52,39.05,0,.48,0,.95-.01,1.43ZM349.75,195.8l-1.07.07c-3.05.21-6.32.41-9.85.61-9.65.55-20.34,1.03-31.78,1.44-1.37-11.9-3.4-23.53-6.03-34.63,13.46-.86,25.92-1.94,37.06-3.19l1.13-.12c10.59-1.21,19.77-2.56,27.31-4.03,6.18,11.61,11,23.93,14.35,36.64-6.79,1.17-17.25,2.24-31.12,3.2ZM338.68,155.56l-1.36.15c-11.25,1.26-23.82,2.33-37.37,3.19-3.06-12.01-6.85-23.35-11.28-33.76,10.35-.81,20.23-1.78,29.41-2.92l1.17-.15c7.36-.92,14.33-1.95,20.75-3.06,9.36,9.94,17.5,20.97,24.24,32.82-7.24,1.37-15.82,2.62-25.56,3.73ZM318.1,117.64l-1.19.15c-9.42,1.16-19.56,2.16-30.16,2.98-5.76-12.7-12.41-23.68-19.8-32.72,5.63-.39,11.19-.85,16.58-1.37l1.58-.15c3.7-.37,7.35-.76,10.94-1.19,14.74,7.9,28.2,17.88,40.07,29.71-5.66.93-11.72,1.8-18.03,2.6ZM283.5,82.2l-1.61.15c-6.08.57-12.32,1.07-18.57,1.47-6.29-6.93-12.92-12.33-19.83-16.17l4.78.67c14.04,2.73,27.65,7.21,40.54,13.34-1.76.19-3.53.37-5.31.54ZM239.83,84.94l-1.07.03c-6.92.21-13.93.33-20.88.35v-20.09l4.35.16c12.43,1.2,24.31,7.51,35.36,18.77-5.79.33-11.74.59-17.75.78ZM213.01,123.35c-10.92-.02-21.8-.22-32.39-.58l-1.05-.04c-10.48-.37-20.81-.91-30.74-1.61,5.99-12.91,12.89-23.9,20.55-32.7,6.89.42,13.99.76,21.11.99l1.07.03c7.07.21,14.27.34,21.44.36v33.56ZM213.01,127.81v33.56c-13.09-.02-26.1-.2-38.67-.55l-1.07-.03c-13.11-.37-25.82-.91-37.82-1.62,3.11-12.04,6.94-23.36,11.42-33.69,10.35.74,21.23,1.32,32.36,1.71l1.04.03c10.66.36,21.67.56,32.74.58ZM213.01,165.83v33.56c-14.27-.01-28.38-.12-41.96-.32l-1.06-.02c-14.58-.22-28.59-.55-41.68-.99,1.38-11.88,3.41-23.47,6.06-34.5,12.22.73,25.23,1.3,38.7,1.68l1.07.03c12.69.35,25.77.53,38.89.55ZM213.01,203.86v33.56h-86.87c0-.48,0-.95,0-1.43,0-11.24.57-22.49,1.68-33.47,13.16.43,27.3.77,42.06,1l1.07.02c13.71.2,27.85.31,42.07.32ZM213.01,241.89v33.56c-14.06.01-28.07.12-41.64.32l-1.07.02c-14.56.22-28.56.55-41.65.98-1.43-11.39-2.25-23.1-2.46-34.87h86.83ZM170.42,280.24l1.07-.02c13.4-.2,27.36-.3,41.53-.32v33.57c-12.66.02-25.42.2-37.97.55l-1.07.03c-12.98.37-25.68.9-37.77,1.6-2.96-10.97-5.31-22.55-6.98-34.45,12.92-.42,26.77-.74,41.18-.96ZM174.22,318.49l1.06-.03c12.34-.33,25.02-.5,37.74-.52v33.56c-10.46.02-20.92.2-31.1.52l-1.04.04c-10.56.35-20.89.87-30.74,1.53-4.92-10.16-9.19-21.44-12.7-33.57,11.67-.67,24.03-1.18,36.78-1.53ZM181.24,356.53l1.04-.03c10.03-.33,20.36-.51,30.73-.53v33.56c-5.95.02-12,.11-18.01.26l-1.1.03c-5.91.16-11.9.4-17.81.71-8.79-8.18-16.78-19.12-23.76-32.56,9.35-.62,19.07-1.1,28.92-1.43ZM194.55,394.27l1.12-.03c5.78-.15,11.6-.23,17.35-.25v12.77l-4.35-.16c-9.54-.92-18.83-4.9-27.66-11.84,4.48-.2,9.02-.37,13.54-.49ZM213.01,65.23v20.09c-6.95-.02-13.96-.14-20.88-.35l-1.07-.03c-6-.19-11.95-.45-17.75-.78,11.06-11.28,22.95-17.59,35.31-18.77l4.4-.16ZM121.73,241.89c.2,11.81,1.03,23.58,2.45,35.02-11.71.41-22.59.9-32.37,1.46-3.06.17-5.93.35-8.64.53l-1.07.07c-13.73.92-24.26,1.96-31.35,3.1-3.66-13.06-5.75-26.56-6.22-40.18h77.19ZM82.54,283.41l1.07-.07c2.65-.17,5.46-.35,8.44-.52,9.84-.56,20.84-1.06,32.7-1.47,1.66,11.92,3.99,23.54,6.93,34.58-13.1.81-25.2,1.8-36.02,2.95-.81.1-19.11,2.32-27.58,3.76-6.75-11.42-12.15-23.6-16.06-36.26,7.05-1.08,17.3-2.08,30.51-2.97ZM70.6,326.77c6.37-1.09,13.62-2.11,21.58-3.01l4.32-.48c11.04-1.18,23.27-2.18,36.39-2.99,3.46,12.1,7.66,23.4,12.51,33.64-9.65.71-18.93,1.57-27.62,2.57l-1.22.14h0c-6.75.79-13.28,1.67-19.42,2.63-10.15-9.73-19.06-20.65-26.53-32.5ZM117.77,361.07l1.22-.14c9-1.03,18.6-1.91,28.54-2.63,6.64,13.11,14.22,24.05,22.57,32.57-4.27.26-8.56.56-12.79.9l-1.82.15h0c-2.8.23-5.56.48-8.3.75-16.74-7.3-32.13-17.19-45.78-29.42,5.21-.77,10.69-1.5,16.36-2.16ZM157.35,396.23l1.87-.15c5-.39,10.15-.73,15.31-1.01,4.17,3.72,8.48,6.81,12.89,9.27l-4.81-.68c-8.95-1.74-17.76-4.2-26.31-7.35.35-.03.7-.06,1.04-.08ZM167.57,83.82c-6.25-.41-12.49-.9-18.57-1.47l-1.6-.15c-1.79-.17-3.56-.35-5.32-.54,12.9-6.14,26.52-10.62,40.49-13.34l4.82-.68c-6.91,3.84-13.54,9.24-19.83,16.17ZM145.78,86.52l1.59.15c5.39.52,10.96.98,16.58,1.37-7.39,9.03-14.03,20.02-19.8,32.72-10.59-.81-20.73-1.81-30.15-2.98l-1.19-.15c-6.32-.79-12.38-1.67-18.03-2.6,11.87-11.83,25.33-21.81,40.07-29.71,3.59.43,7.24.82,10.94,1.19ZM111.64,122.07l1.18.15c9.17,1.13,19.05,2.11,29.4,2.92-4.43,10.42-8.22,21.76-11.28,33.76-13.56-.86-26.12-1.93-37.37-3.19l-1.39-.16c-9.71-1.11-18.29-2.36-25.53-3.72,6.74-11.86,14.89-22.89,24.24-32.82,6.42,1.11,13.4,2.14,20.75,3.06ZM91.72,159.99l1.08.12c11.15,1.25,23.61,2.32,37.07,3.19-2.63,11.1-4.66,22.72-6.03,34.63-11.45-.41-22.13-.89-31.78-1.44-3.52-.2-6.8-.41-9.85-.61l-1.06-.07c-13.87-.95-24.33-2.03-31.12-3.2,3.34-12.72,8.17-25.04,14.35-36.64,7.53,1.46,16.71,2.82,27.35,4.03ZM80.73,200.25l1.07.07c3.1.21,6.42.42,10,.62,9.62.55,20.22,1.03,31.55,1.43-1.12,11.03-1.68,22.33-1.68,33.62,0,.48,0,.95,0,1.43H44.44c0-.48-.01-.95-.01-1.43,0-13.16,1.52-26.29,4.52-39.05,6.84,1.22,17.52,2.33,31.78,3.31Z"/>
</svg>