<?xml version="1.0" encoding="UTF-8"?>
<svg id="Camada_1" xmlns="http://www.w3.org/2000/svg" viewBox="0 0 1150.61 1150.61">
  <defs>
    <style>
      .cls-1 {
        fill: #c9e543;
      }
    </style>
  </defs>
  <path class="cls-1" d="M1074.01,453.33c-.24-1-.48-1.99-.73-2.99-10.44-41.58-25.95-81.17-45.85-118.05-.53-.99-1.07-1.98-1.61-2.96-21.19-38.65-47.21-74.29-77.24-106.11-.93-.99-1.87-1.98-2.81-2.97-36.69-38.27-79.23-70.89-126.17-96.4-1.6-.87-3.23-1.7-4.84-2.56-58.93-31.21-124.62-51.27-194.26-57.37-11.5-1.31-23.14-2.01-34.9-2.01v.08c-1.14-.03-2.28-.08-3.43-.08v.09c-.71,0-1.43-.02-2.15-.03-.43-.01-.85-.06-1.28-.06v.04c-1.14,0-2.28-.04-3.43-.04s-2.29.04-3.43.04v-.04c-.43,0-.86.04-1.28.06-.72,0-1.43.02-2.14.03v-.09c-1.15,0-2.29.06-3.43.08v-.08c-11.77,0-23.4.71-34.91,2.01-69.64,6.1-135.32,26.16-194.25,57.37-1.61.85-3.24,1.69-4.84,2.56-46.94,25.51-89.48,58.13-126.17,96.4-.94.98-1.87,1.98-2.81,2.97-30.03,31.82-56.05,67.45-77.24,106.11-.55,1.01-1.1,2.02-1.65,3.04-19.89,36.86-35.38,76.43-45.82,117.98-.25.99-.49,1.99-.73,2.99-9.57,39.11-14.68,79.96-14.68,121.98,0,3.1.06,6.18.12,9.26.02,1.04.01,2.1.04,3.14,1.07,45.04,7.99,88.66,19.99,130.13.29,1,.6,1.99.89,2.98,12.26,41.4,29.6,80.63,51.31,116.97.58.98,1.15,1.97,1.74,2.94,23.46,38.69,51.89,74.04,84.39,105.17,1.04.99,2.09,1.97,3.13,2.95,41.8,39.38,90.17,71.84,143.29,95.54,1.95.87,3.91,1.73,5.87,2.57,49.02,21.14,101.97,34.84,157.41,39.7,11.51,1.31,23.15,2.01,34.91,2.01v-.08c1.14.03,2.28.08,3.43.08v-.09c.72,0,1.43.02,2.14.03.43.02.86.06,1.28.06v-.04c1.14,0,2.28.04,3.43.04s2.28-.04,3.43-.04v.04c.43,0,.85-.04,1.28-.06.72,0,1.43-.02,2.15-.03v.09c1.15,0,2.29-.06,3.43-.08v.08c11.76,0,23.4-.71,34.9-2.01,55.45-4.86,108.4-18.56,157.43-39.7,1.96-.85,3.92-1.7,5.87-2.57,53.12-23.7,101.49-56.16,143.29-95.54,1.04-.98,2.09-1.96,3.13-2.95,32.5-31.13,60.93-66.48,84.39-105.17.61-1,1.19-2.02,1.79-3.02,21.69-36.32,39.01-75.52,51.26-116.89.3-1,.6-1.99.89-2.98,12-41.48,18.92-85.09,19.99-130.13.02-1.04.02-2.09.04-3.14.06-3.08.12-6.16.12-9.26,0-42.02-5.11-82.86-14.68-121.98ZM1070.2,450.96c-15.95,3.09-45.01,6.85-97.92,10.49-7.14-40.68-18.03-79.53-32.17-115.93.04,0,.07,0,.11-.01,27.93-3.19,58-7.35,84-12.56,19.97,36.85,35.52,76.43,45.98,118.02ZM978.89,584.56h-131.91c.03-3.08.06-6.16.06-9.26,0-35.72-1.9-70.6-5.5-104.28,35.45-1.22,68.55-2.7,98.59-4.42,10.56-.6,20.37-1.21,29.53-1.83,6.09,35.6,9.32,72.58,9.32,110.53,0,3.1-.05,6.18-.09,9.26ZM171.63,575.3c0-37.94,3.24-74.92,9.32-110.53,9.15.62,18.96,1.23,29.53,1.83,30.04,1.72,63.15,3.19,98.59,4.42-3.6,33.68-5.5,68.56-5.5,104.28,0,3.1.03,6.18.06,9.26h-131.91c-.04-3.08-.09-6.16-.09-9.26ZM843.84,584.56h-131.91c.01-3.08.03-6.17.03-9.26,0-34.33-.86-68.14-2.55-101.07,45.32-.69,88.66-1.73,129-3.11,3.59,33.64,5.49,68.48,5.49,104.17,0,3.1-.03,6.18-.06,9.26ZM573.74,1034.43c-19.59.01-39,.28-58.18.78-14.28-27.01-27.11-63.96-37.92-108.53,31.35-1.02,63.49-1.56,96.1-1.57v109.33ZM306.71,575.3c0-35.69,1.9-70.53,5.49-104.17,40.34,1.37,83.68,2.41,129,3.11-1.69,32.93-2.55,66.74-2.55,101.07,0,3.09.01,6.18.03,9.26h-131.91c-.03-3.08-.06-6.16-.06-9.26ZM576.88,137.84c23.03-.01,45.83-.38,68.28-1.07,12.38,28.97,23.44,65.77,32.73,108.66-32.91,1.13-66.7,1.72-101.01,1.74v-109.33ZM708.82,575.3c0,3.1-.02,6.18-.03,9.26h-131.91v-109.33c44.25,0,87.63-.33,129.37-.95,1.68,32.67,2.56,66.44,2.56,101.02ZM573.74,921.96c-33.2.02-65.55.55-96.85,1.56-7.8-32.72-14.52-69.46-19.93-109.34,37.85-1.01,76.96-1.54,116.78-1.55v109.33ZM441.8,575.3c0-34.58.89-68.36,2.56-101.02,41.74.62,85.12.95,129.38.95v109.33h-131.91c-.01-3.08-.03-6.16-.03-9.26ZM576.88,250.3c34.91-.02,68.9-.61,101.69-1.72,7.07,33.18,13.08,69.92,17.84,109.42-38.7,1.06-78.75,1.61-119.54,1.63v-109.33ZM576.88,362.77c40.92-.01,81.09-.57,119.91-1.64,4.11,34.75,7.26,71.59,9.3,110.01-41.69.62-85.02.94-129.21.95v-109.33ZM573.74,472.1c-44.2,0-87.53-.33-129.21-.95,2.04-38.45,5.19-75.31,9.31-110.08,39.46,1.11,79.78,1.69,119.9,1.7v109.33ZM573.74,587.7v109.33c-43.81,0-86.78.32-128.13.93-2.24-35.45-3.54-72.35-3.77-110.26h131.9ZM573.74,700.17v109.33c-39.96.01-79.22.55-117.2,1.56-4.61-34.53-8.24-71.37-10.74-109.96,41.3-.61,84.19-.92,127.94-.93ZM576.88,700.17c43.74,0,86.64.32,127.94.93-2.51,38.61-6.14,75.47-10.75,110.02-38.59-1.06-77.99-1.61-117.19-1.63v-109.33ZM576.88,697.03v-109.33h131.9c-.23,37.91-1.53,74.81-3.77,110.26-41.36-.61-84.32-.93-128.13-.93ZM699.94,361.05c41.31-1.16,81.06-2.91,118.48-5.2,8.67,35.34,15.31,72.91,19.63,112.15-40.29,1.37-83.57,2.41-128.82,3.1-2.01-38.09-5.13-74.96-9.29-110.05ZM699.57,357.92c-4.71-39-10.71-75.74-17.91-109.44,34.47-1.21,67.59-2.99,99.03-5.29,14.6,33.12,27.06,69.91,36.96,109.57-37.3,2.27-76.92,4.01-118.08,5.16ZM680.98,245.32c-2.42-11.11-4.95-21.9-7.63-32.31-7.61-29.58-16.01-55.1-25.02-76.34,21.95-.71,43.58-1.72,64.76-3.05,24.96,28.23,47.32,64.27,66.2,106.39-31.55,2.33-64.45,4.11-98.31,5.31ZM647,133.57c-15.77-36.19-33.38-59.31-51.9-67.88,41.72,3.98,80.9,27.11,115.29,64.94-20.65,1.27-41.8,2.26-63.39,2.94ZM573.74,359.63c-40.79-.01-80.84-.57-119.54-1.63,4.76-39.51,10.77-76.24,17.84-109.42,32.79,1.11,66.78,1.7,101.7,1.72v109.33ZM468.95,248.48c-7.21,33.7-13.21,70.44-17.91,109.44-41.17-1.16-80.78-2.89-118.08-5.16,9.9-39.66,22.36-76.45,36.96-109.57,31.44,2.3,64.56,4.09,99.03,5.29ZM371.33,240.01c18.88-42.12,41.24-78.16,66.2-106.39,21.18,1.33,42.8,2.35,64.76,3.05-9.01,21.23-17.41,46.75-25.02,76.34-2.68,10.4-5.22,21.2-7.63,32.31-33.86-1.2-66.76-2.98-98.31-5.31ZM450.68,360.98c-4.16,35.11-7.29,72.01-9.3,110.12-45.25-.69-88.53-1.73-128.82-3.1,4.33-39.27,10.97-76.88,19.66-112.25,37.74,2.29,77.63,4.04,118.47,5.22ZM438.69,587.7c.23,37.61,1.5,74.55,3.75,110.31-44.81.68-87.7,1.7-127.68,3.04-4.75-36.39-7.49-74.33-7.97-113.35h131.9ZM442.64,701.15c2.47,38.24,6.08,75.1,10.75,110-40.25,1.11-79.03,2.77-115.65,4.94-9.67-35.06-17.3-72.56-22.57-111.91,39.92-1.34,82.73-2.35,127.46-3.03ZM453.81,814.27c5.34,39.3,12.04,76.03,20.01,109.35-32.66,1.09-64.13,2.69-94.13,4.76-16.04-32.58-29.89-69.28-41.08-109.21,36.49-2.16,75.12-3.8,115.21-4.9ZM474.57,926.78c.89,3.65,1.78,7.27,2.7,10.83,10.36,40.29,22.19,73.07,35.04,97.69-18.47.51-36.7,1.25-54.66,2.2-28.67-26.22-54.5-62.28-76.37-105.95,30.04-2.09,61.25-3.69,93.3-4.77ZM513.95,1038.4c12.99,24.03,27,39.78,41.57,46.53-33.57-3.2-65.5-18.78-94.61-44.45,17.36-.9,35.06-1.59,53.04-2.07ZM576.88,812.64c39.82.01,78.93.54,116.77,1.55-5.41,39.87-12.13,76.61-19.93,109.34-31.29-1.01-63.65-1.55-96.84-1.56v-109.33ZM676.05,926.78c32.05,1.08,63.26,2.68,93.3,4.77-21.87,43.66-47.71,79.72-76.38,105.95-17.96-.95-36.2-1.69-54.66-2.2,12.85-24.62,24.67-57.4,35.04-97.69.92-3.56,1.81-7.18,2.7-10.83ZM676.8,923.62c7.96-33.32,14.66-70.06,20-109.35,40.09,1.1,78.72,2.75,115.21,4.9-11.19,39.93-25.04,76.63-41.08,109.21-30.01-2.07-61.47-3.68-94.13-4.76ZM697.21,811.21c4.67-34.92,8.28-71.8,10.76-110.06,44.73.68,87.54,1.69,127.46,3.03-5.28,39.38-12.91,76.92-22.59,112.01-36.93-2.18-75.84-3.85-115.63-4.97ZM708.17,698.01c2.25-35.76,3.52-72.69,3.75-110.31h131.9c-.48,39.01-3.22,76.95-7.97,113.35-39.98-1.34-82.87-2.36-127.68-3.04ZM821.54,355.66c41.75-2.6,80.56-5.87,115.37-9.78,14.16,36.33,25.08,75.14,32.23,115.78-9.04.61-18.73,1.21-29.18,1.81-30.09,1.72-63.25,3.2-98.76,4.42-4.33-39.25-10.97-76.85-19.65-112.24ZM820.78,352.56c-9.89-39.63-22.34-76.43-36.92-109.61,33.3-2.49,64.69-5.55,93.76-9.13,22.81,32.79,42.4,69.41,58.11,109.04-34.71,3.88-73.37,7.13-114.95,9.71ZM782.48,239.77c-18.73-41.95-40.91-77.96-65.67-106.4,20.03-1.3,39.66-2.87,58.8-4.71,37.41,26.88,71.11,61.43,99.81,102.01-29.21,3.6-60.33,6.64-92.94,9.09ZM714.21,130.39c-28.71-32.14-60.81-54.1-94.98-63.42.33.03.66.06.99.09,54.4,6.18,105.66,26.77,151.49,58.82-18.64,1.75-37.83,3.26-57.5,4.51ZM643.82,133.67c-21.91.66-44.26,1.02-66.95,1.03v-69.62c1.01,0,2.02.03,3.03.04,23.26.81,45.08,25.66,63.92,68.55ZM573.74,247.16c-34.31-.02-68.11-.6-101.01-1.74,9.29-42.89,20.35-79.69,32.73-108.66,22.46.69,45.25,1.05,68.29,1.07v109.33ZM440.23,130.62c34.39-37.83,73.57-60.96,115.29-64.94-18.52,8.57-36.13,31.69-51.9,67.88-21.58-.68-42.74-1.67-63.39-2.94ZM531.38,66.97c-34.17,9.32-66.27,31.28-94.98,63.42-19.67-1.25-38.85-2.76-57.5-4.51,45.82-32.05,97.08-52.64,151.48-58.82.33-.03.67-.06,1-.09ZM433.8,133.37c-24.76,28.44-46.94,64.44-65.67,106.4-32.61-2.45-63.74-5.5-92.94-9.09,28.71-40.59,62.41-75.13,99.81-102.01,19.14,1.84,38.77,3.41,58.8,4.71ZM366.75,242.95c-14.58,33.18-27.03,69.98-36.92,109.61-41.58-2.58-80.24-5.83-114.95-9.71,15.7-39.63,35.29-76.25,58.11-109.04,29.07,3.58,60.46,6.65,93.76,9.13ZM329.1,355.56c-8.69,35.41-15.34,73.05-19.68,112.33-35.51-1.23-68.67-2.7-98.76-4.42-10.45-.6-20.14-1.2-29.18-1.81,7.15-40.64,18.06-79.43,32.22-115.76,34.72,3.85,73.72,7.08,115.4,9.65ZM303.65,587.7c.48,39.04,3.23,77.01,7.98,113.45-36.42,1.24-70.39,2.75-101.16,4.51-9.03.52-17.5,1.04-25.49,1.56-7.9-38.27-12.47-78.29-13.24-119.52h131.9ZM210.66,708.79c30.83-1.76,64.88-3.27,101.38-4.51,5.27,39.35,12.91,76.87,22.58,111.99-40.46,2.44-78.22,5.52-112.37,9.18-15.64-35.91-28.02-74.51-36.62-115.12,7.84-.52,16.17-1.03,25.02-1.53ZM335.47,819.36c11.17,39.89,24.98,76.6,40.99,109.25-31.35,2.21-61.07,4.93-88.85,8.11-24.87-32.12-46.46-68.51-64.04-108.25,34.03-3.63,71.63-6.68,111.91-9.11ZM378.03,931.77c21.62,43.36,47.12,79.4,75.42,105.95-16.63.92-33,2.02-49.08,3.3-42.66-24.86-81.3-59.31-114.31-101.2,27.84-3.18,57.28-5.87,87.98-8.05ZM456.7,1040.69c23.27,21.07,48.36,35.77,74.68,42.95-.33-.03-.67-.06-1-.09-42.69-4.85-83.44-18.58-121.16-39.76,15.51-1.2,31.35-2.23,47.48-3.1ZM517.25,1038.31c18.55-.47,37.4-.73,56.49-.74v47.96c-1.01,0-2.02-.03-3.04-.04-19.07-.67-37.17-17.5-53.45-47.18ZM576.88,925.1c32.61.02,64.74.55,96.09,1.57-10.81,44.58-23.64,81.52-37.92,108.53-19.18-.5-38.59-.77-58.17-.78v-109.33ZM689.7,1040.47c-29.11,25.68-61.04,41.25-94.61,44.45,14.57-6.74,28.58-22.5,41.57-46.53,17.98.49,35.68,1.18,53.04,2.07ZM619.23,1083.64c26.32-7.18,51.42-21.88,74.68-42.95,16.13.86,31.97,1.9,47.48,3.1-37.72,21.18-78.47,34.91-121.16,39.76-.33.03-.66.06-.99.09ZM697.17,1037.72c28.3-26.55,53.8-62.59,75.42-105.95,30.7,2.18,60.14,4.87,87.98,8.05-33.01,41.9-71.65,76.35-114.31,101.2-16.08-1.28-32.46-2.39-49.08-3.3ZM774.16,928.61c16-32.65,29.82-69.36,40.99-109.25,40.27,2.42,77.88,5.47,111.91,9.11-17.58,39.74-39.17,76.13-64.04,108.25-27.78-3.18-57.5-5.9-88.85-8.11ZM815.96,816.37c9.68-35.14,17.33-72.7,22.61-112.09,36.5,1.24,70.55,2.75,101.38,4.51,8.86.51,17.18,1.02,25.02,1.53-8.6,40.61-20.98,79.2-36.61,115.11-34.09-3.61-72.04-6.64-112.4-9.06ZM940.13,705.66c-30.77-1.76-64.74-3.26-101.16-4.51,4.76-36.44,7.5-74.41,7.98-113.45h131.9c-.76,41.23-5.33,81.24-13.23,119.52-7.99-.52-16.47-1.05-25.49-1.56ZM1022.59,329.99c-22.59,4.51-50.41,8.71-82.72,12.4-.3.04-.61.07-.92.1-15.63-39.62-35.14-76.26-57.85-109.12,22.78-2.86,44.12-6.04,63.8-9.5,30.22,31.77,56.38,67.42,77.69,106.11ZM942.03,220.92c-.75.13-1.49.26-2.25.39-19.1,3.27-39.44,6.25-60.83,8.93-28.39-40.42-61.7-74.95-98.66-102.03,11.47-1.13,22.75-2.36,33.84-3.69,47.6,25.32,90.73,57.95,127.9,96.4ZM809.28,121.96c-10.73,1.24-21.67,2.4-32.82,3.48-32.16-22.96-67.03-40.31-103.82-51.02,48.3,9.37,94.2,25.55,136.64,47.54ZM573.74,65.08v69.62c-22.69-.01-45.03-.37-66.95-1.03,18.84-42.88,40.66-67.74,63.91-68.55,1.01,0,2.02-.04,3.04-.04ZM477.97,74.42c-36.79,10.71-71.66,28.06-103.81,51.02-11.14-1.07-22.09-2.23-32.82-3.48,42.43-21.99,88.33-38.17,136.63-47.54ZM336.49,124.52c11.09,1.32,22.37,2.55,33.84,3.69-36.97,27.09-70.27,61.61-98.66,102.03-21.39-2.68-41.73-5.66-60.83-8.93-.76-.13-1.49-.26-2.25-.39,37.17-38.45,80.3-71.08,127.9-96.4ZM205.71,223.88c19.68,3.46,41.02,6.64,63.8,9.5-22.71,32.86-42.22,69.5-57.85,109.12-.3-.04-.61-.07-.92-.1-32.31-3.69-60.13-7.89-82.72-12.4,21.31-38.69,47.47-74.35,77.69-106.11ZM126.35,333.03c23.35,4.69,51.85,8.88,84.14,12.52-14.13,36.39-25.02,75.23-32.16,115.9-52.92-3.63-81.97-7.4-97.92-10.49,10.44-41.55,25.98-81.11,45.94-117.94ZM65.06,575.3c0-41.8,5.09-82.43,14.62-121.34,16.67,3.32,46.11,7.03,98.13,10.6-6.08,35.68-9.32,72.73-9.32,110.74,0,3.1.05,6.18.09,9.26h-103.4c-.06-3.08-.12-6.16-.12-9.26ZM65.22,587.7h103.39c.76,41.29,5.32,81.38,13.22,119.73-49.1,3.29-78.76,6.71-96.65,9.84-11.98-41.29-18.89-84.72-19.96-129.57ZM86.07,720.27c17.35-2.96,46.73-6.41,96.41-9.74,8.58,40.64,20.93,79.28,36.53,115.26-2.9.32-5.77.64-8.61.96-24.01,2.74-49.6,6.2-72.84,10.43-21.8-36.3-39.19-75.51-51.48-116.91ZM139.32,840.13c20.36-3.7,44.3-7.16,71.43-10.25,3.15-.36,6.34-.71,9.56-1.06,17.49,39.71,38.95,76.12,63.68,108.32-21.1,2.46-41.04,5.19-59.7,8.15-32.73-31.07-61.36-66.42-84.97-105.15ZM227.46,948.23c18.65-2.93,38.35-5.59,58.95-7.99,32.53,41.63,70.58,76.04,112.58,101.21-8.69.72-17.28,1.5-25.78,2.32-54.05-23.41-103.27-55.9-145.75-95.54ZM379.24,1046.35c8.05-.75,16.19-1.46,24.44-2.12,23.64,13.68,48.49,24.45,74.28,31.96-34.24-6.64-67.28-16.7-98.72-29.84ZM576.88,1085.53v-47.96c19.09.01,37.93.27,56.48.74-16.28,29.68-34.38,46.51-53.45,47.18-1.01,0-2.02.04-3.03.04ZM672.64,1076.19c25.8-7.51,50.65-18.28,74.29-31.96,8.24.66,16.39,1.37,24.44,2.12-31.45,13.14-64.48,23.2-98.73,29.84ZM777.4,1043.78c-8.5-.83-17.09-1.6-25.78-2.32,42-25.18,80.05-59.58,112.58-101.21,20.6,2.4,40.3,5.06,58.95,7.99-42.48,39.65-91.7,72.14-145.75,95.54ZM926.32,945.28c-18.66-2.96-38.6-5.69-59.7-8.15,24.73-32.2,46.19-68.61,63.68-108.32,3.22.35,6.41.7,9.56,1.06,27.13,3.1,51.07,6.56,71.43,10.25-23.61,38.73-52.24,74.08-84.97,105.15ZM1013.1,837.11c-23.23-4.23-50.74-8.02-81.49-11.33,15.6-35.98,27.94-74.61,36.52-115.25,49.67,3.33,79.05,6.78,96.41,9.74-12.28,41.37-29.66,80.56-51.44,116.84ZM1065.43,717.27c-17.89-3.13-47.55-6.56-96.65-9.84,7.9-38.35,12.46-78.44,13.22-119.73h103.39c-1.07,44.85-7.98,88.28-19.96,129.57ZM982.03,584.56c.04-3.08.09-6.16.09-9.26,0-38.01-3.24-75.06-9.32-110.74,52.02-3.57,81.46-7.28,98.13-10.6,9.53,38.91,14.62,79.54,14.62,121.34,0,3.1-.06,6.18-.12,9.26h-103.4Z"/>
</svg>