<?xml version="1.0" encoding="UTF-8"?>
<svg id="Camada_1" xmlns="http://www.w3.org/2000/svg" viewBox="0 0 1080 617.29">
  <defs>
    <style>
      .cls-1 {
        fill: #fff;
      }

      .cls-2 {
        fill: #c9e543;
      }
    </style>
  </defs>
  <path class="cls-2" d="M717.69,263.25c-.09-.37-.18-.74-.27-1.11-3.88-15.47-9.66-30.21-17.06-43.94-.2-.37-.4-.74-.6-1.1-7.89-14.38-17.57-27.65-28.75-39.49-.35-.37-.69-.74-1.04-1.1-13.66-14.24-29.49-26.38-46.96-35.88-.6-.32-1.2-.63-1.8-.95-21.93-11.61-46.38-19.08-72.3-21.35-4.28-.49-8.61-.75-12.99-.75v.03c-.43-.01-.85-.03-1.28-.03v.03c-.27,0-.53,0-.8-.01-.16,0-.32-.02-.48-.02v.02c-.43,0-.85-.02-1.28-.02s-.85.01-1.28.02v-.02c-.16,0-.32.02-.48.02-.27,0-.53,0-.8.01v-.03c-.43,0-.85.02-1.28.03v-.03c-4.38,0-8.71.26-12.99.75-25.92,2.27-50.36,9.74-72.29,21.35-.6.32-1.2.63-1.8.95-17.47,9.49-33.3,21.63-46.96,35.88-.35.37-.7.74-1.04,1.1-11.18,11.84-20.86,25.1-28.75,39.49-.21.38-.41.75-.61,1.13-7.4,13.72-13.17,28.44-17.05,43.91-.09.37-.18.74-.27,1.11-3.56,14.56-5.46,29.76-5.46,45.4,0,1.15.02,2.3.04,3.45,0,.39,0,.78.01,1.17.4,16.76,2.97,33,7.44,48.43.11.37.22.74.33,1.11,4.56,15.41,11.02,30.01,19.1,43.53.22.36.43.73.65,1.1,8.73,14.4,19.31,27.55,31.41,39.14.39.37.78.73,1.16,1.1,15.56,14.66,33.56,26.74,53.33,35.56.73.32,1.45.64,2.19.96,18.24,7.87,37.95,12.97,58.59,14.78,4.28.49,8.61.75,12.99.75v-.03c.43.01.85.03,1.28.03v-.03c.27,0,.53,0,.8.01.16,0,.32.02.48.02v-.02c.43,0,.85.02,1.28.02s.85-.01,1.28-.02v.02c.16,0,.32-.02.48-.02.27,0,.53,0,.8,0v.03c.43,0,.85-.02,1.28-.03v.03c4.38,0,8.71-.26,12.99-.75,20.64-1.81,40.34-6.91,58.59-14.78.73-.31,1.46-.63,2.18-.96,19.77-8.82,37.77-20.9,53.33-35.56.39-.37.78-.73,1.16-1.1,12.1-11.59,22.68-24.74,31.41-39.14.23-.37.44-.75.67-1.12,8.07-13.52,14.52-28.11,19.08-43.5.11-.37.22-.74.33-1.11,4.47-15.44,7.04-31.67,7.44-48.43,0-.39,0-.78.01-1.17.02-1.15.04-2.29.04-3.45,0-15.64-1.9-30.84-5.46-45.4ZM716.28,262.37c-5.94,1.15-16.75,2.55-36.44,3.9-2.66-15.14-6.71-29.6-11.97-43.15.01,0,.03,0,.04,0,10.39-1.19,21.58-2.74,31.26-4.68,7.43,13.72,13.22,28.45,17.11,43.92ZM609.19,183.77c-6.97-15.61-15.23-29.01-24.44-39.6,7.45-.48,14.76-1.07,21.88-1.75,13.92,10,26.46,22.86,37.15,37.97-10.87,1.34-22.45,2.47-34.59,3.38ZM644.61,181.55c8.49,12.2,15.78,25.83,21.62,40.58-12.92,1.44-27.3,2.65-42.78,3.61-3.68-14.75-8.31-28.44-13.74-40.79,12.39-.93,24.08-2.07,34.9-3.4ZM608.01,183.86c-11.74.87-23.99,1.53-36.59,1.98-.9-4.14-1.84-8.15-2.84-12.02-2.83-11.01-5.96-20.51-9.31-28.41,8.17-.26,16.22-.64,24.1-1.14,9.29,10.51,17.61,23.92,24.64,39.59ZM608.53,185.04c5.43,12.33,10.07,26.02,13.76,40.78-13.88.85-28.63,1.49-43.95,1.92-1.75-14.51-3.98-28.19-6.67-40.73,12.83-.45,25.16-1.11,36.86-1.97ZM622.57,226.97c3.23,13.15,5.7,27.14,7.31,41.74-14.99.51-31.1.9-47.94,1.15-.75-14.17-1.91-27.9-3.46-40.96,15.37-.43,30.17-1.08,44.1-1.93ZM623.73,226.9c15.54-.97,29.98-2.19,42.94-3.64,5.27,13.52,9.33,27.96,12,43.09-3.36.23-6.97.45-10.86.67-11.2.64-23.54,1.19-36.76,1.65-1.61-14.61-4.08-28.6-7.31-41.77ZM698.56,217.35c-8.41,1.68-18.76,3.24-30.79,4.61-.11.01-.23.03-.34.04-5.82-14.74-13.08-28.38-21.53-40.61,8.48-1.06,16.42-2.25,23.74-3.54,11.25,11.82,20.98,25.09,28.91,39.49ZM668.57,176.75c-.28.05-.55.1-.84.15-7.11,1.22-14.68,2.33-22.64,3.32-10.57-15.04-22.96-27.89-36.72-37.97,4.27-.42,8.47-.88,12.59-1.37,17.71,9.42,33.77,21.57,47.6,35.88ZM619.17,139.92c-3.99.46-8.07.89-12.21,1.29-11.97-8.55-24.95-15-38.64-18.99,17.98,3.49,35.06,9.51,50.85,17.69ZM548.81,119.49c20.25,2.3,39.32,9.96,56.38,21.89-6.94.65-14.08,1.21-21.4,1.68-10.69-11.96-22.63-20.14-35.35-23.6.12.01.25.02.37.03ZM582.36,143.15c-7.68.47-15.56.84-23.59,1.09-5.87-13.47-12.42-22.07-19.32-25.26,15.53,1.48,30.11,10.09,42.91,24.17ZM532.68,118.76c.38,0,.75.01,1.13.01,8.66.3,16.78,9.55,23.79,25.51-8.16.25-16.47.38-24.92.38v-25.91ZM532.68,145.83c8.57,0,17.06-.14,25.41-.4,4.61,10.78,8.72,24.48,12.18,40.44-12.25.42-24.82.64-37.59.65v-40.69ZM532.68,187.69c12.99,0,25.64-.23,37.85-.64,2.63,12.35,4.87,26.02,6.64,40.72-14.4.39-29.31.6-44.49.6v-40.69ZM532.68,229.55c15.23,0,30.18-.21,44.63-.61,1.53,12.93,2.7,26.64,3.46,40.94-15.51.23-31.64.35-48.09.35v-40.69ZM530.38,118.77c.38,0,.75-.01,1.13-.01v25.91c-8.44,0-16.76-.14-24.92-.38,7.01-15.96,15.13-25.21,23.79-25.51ZM456.18,183.86c7.03-15.68,15.35-29.09,24.64-39.59,7.88.5,15.93.87,24.1,1.14-3.35,7.9-6.48,17.4-9.31,28.41-1,3.87-1.94,7.89-2.84,12.02-12.6-.45-24.85-1.11-36.59-1.98ZM492.51,187.01c-2.68,12.54-4.91,26.22-6.67,40.73-15.32-.43-30.06-1.08-43.95-1.92,3.69-14.76,8.32-28.45,13.76-40.78,11.7.86,24.03,1.52,36.86,1.97ZM454.99,183.77c-12.14-.91-23.72-2.05-34.59-3.38,10.68-15.1,23.23-27.96,37.15-37.97,7.12.69,14.43,1.27,21.88,1.75-9.21,10.59-17.47,23.98-24.44,39.6ZM454.47,184.95c-5.43,12.35-10.06,26.04-13.74,40.79-15.48-.96-29.86-2.17-42.78-3.61,5.84-14.75,13.14-28.38,21.63-40.58,10.82,1.33,22.5,2.47,34.89,3.4ZM440.46,226.86c-3.23,13.18-5.71,27.19-7.32,41.81-13.22-.46-25.56-1.01-36.76-1.65-3.89-.22-7.5-.45-10.86-.67,2.66-15.12,6.72-29.56,11.99-43.08,12.92,1.43,27.44,2.64,42.95,3.59ZM441.62,226.94c14.05.85,28.89,1.5,44.09,1.94-1.55,13.07-2.71,26.8-3.46,40.98-16.84-.26-32.95-.64-47.94-1.15,1.61-14.61,4.08-28.61,7.32-41.77ZM486.88,228.91c14.69.41,29.69.63,44.62.63v40.69c-16.45,0-32.57-.12-48.09-.35.76-14.31,1.93-28.03,3.47-40.97ZM487.02,227.77c1.77-14.7,4.01-28.38,6.64-40.72,12.2.41,24.85.63,37.85.64v40.69c-15.18,0-30.08-.21-44.49-.61ZM493.91,185.88c3.46-15.96,7.57-29.66,12.18-40.44,8.36.26,16.84.39,25.41.4v40.69c-12.77,0-25.35-.22-37.59-.65ZM505.41,144.24c-8.03-.25-15.91-.62-23.59-1.09,12.8-14.08,27.38-22.69,42.91-24.17-6.89,3.19-13.45,11.79-19.32,25.26ZM515.37,119.49c.12-.01.25-.02.37-.03-12.72,3.47-24.66,11.64-35.35,23.6-7.32-.46-14.46-1.03-21.4-1.68,17.05-11.93,36.13-19.59,56.38-21.89ZM495.86,122.23c-13.69,3.99-26.67,10.44-38.64,18.99-4.15-.4-8.22-.83-12.21-1.29,15.79-8.18,32.87-14.21,50.85-17.69ZM443.21,140.88c4.13.49,8.33.95,12.59,1.37-13.76,10.08-26.15,22.93-36.72,37.97-7.96-1-15.53-2.11-22.64-3.32-.28-.05-.56-.1-.84-.15,13.83-14.31,29.89-26.45,47.6-35.88ZM394.54,177.86c7.33,1.29,15.27,2.47,23.75,3.54-8.45,12.23-15.71,25.87-21.53,40.61-.11-.01-.23-.03-.34-.04-12.03-1.37-22.38-2.94-30.79-4.61,7.93-14.4,17.67-27.67,28.91-39.49ZM365,218.48c8.69,1.75,19.3,3.3,31.32,4.66-5.26,13.54-9.31,28-11.97,43.14-19.69-1.35-30.51-2.75-36.44-3.9,3.89-15.47,9.67-30.19,17.1-43.89ZM350.01,362.6c6.46-1.1,17.39-2.39,35.88-3.62,3.19,15.13,7.79,29.51,13.59,42.9-1.08.12-2.15.24-3.21.36-8.93,1.02-18.46,2.31-27.11,3.88-8.11-13.51-14.59-28.1-19.16-43.51ZM458.67,441.31c8.04,16.14,17.54,29.55,28.07,39.43-6.19.34-12.28.75-18.27,1.23-15.88-9.25-30.26-22.07-42.54-37.67,10.36-1.18,21.32-2.19,32.74-3ZM425.02,443.15c-9.26-11.95-17.29-25.5-23.83-40.29,12.66-1.35,26.66-2.49,41.65-3.39,4.16,14.85,9.3,28.51,15.25,40.66-11.67.82-22.73,1.83-33.07,3.02ZM459.87,441.23c11.18-.78,22.8-1.37,34.72-1.78.33,1.36.66,2.7,1,4.03,3.86,14.99,8.26,27.19,13.04,36.36-6.87.19-13.66.46-20.34.82-10.67-9.76-20.28-23.18-28.42-39.43ZM459.29,440.05c-5.97-12.12-11.12-25.78-15.29-40.65,13.58-.8,27.96-1.42,42.88-1.83,1.99,14.62,4.48,28.3,7.45,40.7-12.15.4-23.87,1-35.03,1.77ZM443.68,398.26c-3.6-13.05-6.44-27.01-8.4-41.65,14.86-.5,30.79-.88,47.44-1.13.92,14.23,2.26,27.95,4,40.94-14.98.41-29.41,1.03-43.04,1.84ZM442.52,398.33c-15.06.91-29.11,2.05-41.82,3.42-5.82-13.37-10.43-27.73-13.63-42.85,2.92-.19,6.02-.38,9.31-.57,11.47-.66,24.15-1.22,37.73-1.68,1.96,14.65,4.8,28.61,8.4,41.68ZM369.83,407.21c7.58-1.38,16.49-2.66,26.59-3.82,1.17-.13,2.36-.27,3.56-.4,6.51,14.78,14.5,28.33,23.7,40.31-7.85.92-15.27,1.93-22.22,3.03-12.18-11.56-22.84-24.72-31.62-39.13ZM402.63,447.44c6.94-1.09,14.27-2.08,21.94-2.97,12.11,15.49,26.27,28.3,41.9,37.67-3.23.27-6.43.56-9.59.86-20.12-8.71-38.43-20.8-54.24-35.56ZM459.12,483.96c2.99-.28,6.03-.54,9.1-.79,8.8,5.09,18.05,9.1,27.65,11.9-12.74-2.47-25.04-6.22-36.74-11.11ZM515.37,497.8c-15.89-1.81-31.05-6.91-45.09-14.8,5.77-.45,11.67-.83,17.67-1.15,8.66,7.84,18,13.31,27.79,15.98-.12-.01-.25-.02-.37-.03ZM489.52,481.77c6.46-.33,13.05-.59,19.74-.77,4.84,8.94,10.05,14.81,15.47,17.32-12.49-1.19-24.38-6.99-35.21-16.54ZM531.51,498.54c-.38,0-.75-.01-1.13-.01-7.1-.25-13.83-6.51-19.89-17.56,6.91-.18,13.92-.27,21.02-.28v17.85ZM531.51,479.52c-7.29,0-14.51.1-21.65.29-5.31-10.05-10.09-23.8-14.11-40.39,11.67-.38,23.63-.58,35.76-.59v40.69ZM531.51,437.66c-12.35,0-24.4.21-36.04.58-2.9-12.18-5.4-25.85-7.42-40.69,14.08-.38,28.64-.57,43.46-.58v40.69ZM531.51,395.81c-14.87,0-29.48.2-43.62.58-1.71-12.85-3.07-26.56-4-40.92,15.37-.23,31.33-.34,47.61-.35v40.69ZM533.8,498.52c-.38,0-.75.01-1.13.01v-17.85c7.1,0,14.12.1,21.02.28-6.06,11.05-12.8,17.31-19.89,17.56ZM604.31,441.23c-8.14,16.25-17.76,29.67-28.42,39.43-6.68-.35-13.47-.63-20.34-.82,4.78-9.16,9.18-21.36,13.04-36.36.34-1.33.67-2.67,1-4.03,11.93.4,23.54,1,34.72,1.78ZM569.86,438.28c2.96-12.4,5.46-26.07,7.45-40.7,14.92.41,29.3,1.02,42.88,1.83-4.17,14.86-9.32,28.52-15.29,40.65-11.17-.77-22.88-1.37-35.03-1.77ZM605.51,441.31c11.42.81,22.38,1.81,32.74,3-12.28,15.59-26.66,28.41-42.54,37.66-5.98-.48-12.08-.89-18.27-1.23,10.53-9.88,20.02-23.29,28.07-39.43ZM606.1,440.14c5.96-12.15,11.1-25.81,15.25-40.66,14.99.9,28.98,2.04,41.65,3.39-6.54,14.79-14.58,28.33-23.83,40.29-10.34-1.18-21.4-2.2-33.07-3.02ZM621.66,398.36c3.6-13.08,6.45-27.06,8.41-41.72,13.59.46,26.26,1.02,37.73,1.68,3.3.19,6.4.38,9.31.57-3.2,15.11-7.81,29.48-13.63,42.84-12.69-1.34-26.81-2.47-41.83-3.37ZM620.49,398.29c-13.75-.81-28.22-1.43-43.03-1.85,1.74-13,3.08-26.72,4-40.96,16.65.25,32.58.63,47.44,1.13-1.96,14.66-4.81,28.63-8.41,41.69ZM576.29,396.41c-14.36-.4-29.02-.6-43.61-.6v-40.69c16.28,0,32.25.12,47.61.35-.93,14.37-2.28,28.09-4,40.95ZM576.14,397.55c-2.01,14.84-4.51,28.51-7.42,40.69-11.65-.38-23.69-.58-36.04-.58v-40.69c14.82,0,29.38.2,43.46.58ZM568.44,439.42c-4.02,16.59-8.8,30.34-14.11,40.39-7.14-.19-14.36-.29-21.65-.29v-40.69c12.14,0,24.09.2,35.76.59ZM554.93,481c6.69.18,13.28.44,19.74.77-10.83,9.56-22.72,15.35-35.21,16.54,5.42-2.51,10.64-8.37,15.47-17.32ZM548.81,497.8c-.12.01-.25.02-.37.03,9.8-2.67,19.14-8.14,27.79-15.98,6,.32,11.9.71,17.67,1.15-14.04,7.88-29.2,12.99-45.09,14.8ZM568.32,495.06c9.6-2.79,18.85-6.8,27.65-11.9,3.07.25,6.1.51,9.1.79-11.7,4.89-24,8.63-36.74,11.11ZM607.31,483c-3.16-.31-6.36-.6-9.6-.86,15.63-9.37,29.79-22.17,41.9-37.67,7.67.89,15,1.89,21.94,2.97-15.81,14.76-34.13,26.85-54.24,35.56ZM662.73,446.34c-6.95-1.1-14.37-2.12-22.22-3.03,9.21-11.98,17.19-25.53,23.7-40.31,1.2.13,2.39.26,3.56.4,10.1,1.15,19.01,2.44,26.59,3.82-8.79,14.41-19.44,27.57-31.62,39.13ZM695.02,406.08c-8.65-1.57-18.89-2.98-30.33-4.22,5.8-13.39,10.4-27.77,13.59-42.89,18.49,1.24,29.42,2.52,35.88,3.62-4.57,15.4-11.04,29.98-19.14,43.48ZM482.64,354.31c-16.68.25-32.64.63-47.52,1.13-.13-1.01-1.29-.96-1.16.04-13.55.46-26.2,1.02-37.65,1.68-3.36.19-6.51.39-9.49.58-.23-1.12-1.42-1.08-1.18.08-18.27,1.22-29.31,2.5-35.97,3.66-4.46-15.37-7.03-31.53-7.43-48.22h1.18c-.03-.3-.07-.61-.08-.91,0-.09,0-.17,0-.25h-1.12c-.02-1.15-.04-2.29-.04-3.45,0-15.56,1.89-30.68,5.44-45.16,6.2,1.24,17.16,2.62,36.52,3.94-.11.65,1.06.72,1.17.08,3.41.23,7.06.46,10.99.68,11.18.64,23.5,1.19,36.69,1.64-.24,2.21.94,2.18,1.17.04,15.01.51,31.14.9,48.01,1.16-.1,1.89,1.08,1.9,1.17.02,15.53.23,31.68.35,48.15.35h1.17c16.47,0,32.61-.12,48.15-.35.08,1.64,1.26,1.62,1.17-.02,16.87-.26,33-.65,48.01-1.16.2,1.83,1.36,1.79,1.17-.04,13.19-.46,25.51-1,36.69-1.64,3.93-.22,7.58-.45,10.99-.68.16.92,1.34.91,1.17-.08,19.36-1.33,30.32-2.71,36.52-3.94,3.55,14.48,5.44,29.6,5.44,45.16,0,1.15-.02,2.3-.04,3.45h-2.46c.16.39.33.77.48,1.17h1.97c-.4,16.69-2.97,32.85-7.43,48.22-6.66-1.17-17.7-2.44-35.97-3.66.21-1.02-.97-1.05-1.18-.08-2.97-.2-6.13-.39-9.49-.58-11.45-.65-24.09-1.22-37.65-1.68l-1.16-.04c-14.88-.5-30.84-.88-47.52-1.13l-1.18-.02c-15.39-.23-31.38-.34-47.69-.35h-1.17c-16.31,0-32.29.12-47.69.35l-1.18.02Z"/>
  <g>
    <path class="cls-1" d="M270.94,285.31h45.86v7.09h-45.86v-7.09ZM280.54,267.46c2.49-4.08,5.71-6.81,9.66-8.19,3.95-1.38,8.62-2.08,14-2.08,2.36,0,4.91.21,7.64.61,2.73.41,4.79.94,6.18,1.59v13.45c-.57-.49-1.33-.87-2.26-1.16-.94-.29-1.9-.43-2.87-.43-2.37,0-4.06.77-5.08,2.32-1.02,1.55-1.53,4.36-1.53,8.44v64.45h-29.47v-61.64c0-7.5,1.24-13.29,3.73-17.37Z"/>
    <path class="cls-1" d="M329.95,345.67c-4.77-2.16-8.15-5.6-10.15-10.34-2-4.73-3-11.21-3-19.44s1-14.72,3-19.45c2-4.73,5.38-8.17,10.15-10.33,4.77-2.16,11.44-3.24,20-3.24s15.23,1.08,20,3.24c4.77,2.16,8.15,5.61,10.15,10.33,2,4.73,3,11.21,3,19.45s-1,14.72-3,19.44c-2,4.73-5.38,8.17-10.15,10.34-4.77,2.16-11.43,3.24-20,3.24s-15.22-1.08-20-3.24ZM352.45,333.43c.45-.86.73-2.46.86-4.83.12-2.36.18-6.85.18-13.45,0-5.87-.06-9.97-.18-12.29s-.43-3.87-.92-4.65c-.49-.77-1.3-1.16-2.45-1.16s-1.96.39-2.44,1.16c-.49.78-.8,2.32-.92,4.65-.12,2.32-.18,6.42-.18,12.29,0,6.6.06,11.09.18,13.45.12,2.37.41,3.97.86,4.83s1.28,1.28,2.51,1.28,2.06-.43,2.51-1.28Z"/>
    <path class="cls-1" d="M399.9,345.67c-4.77-2.16-8.15-5.6-10.15-10.34-2-4.73-3-11.21-3-19.44s1-14.72,3-19.45c2-4.73,5.38-8.17,10.15-10.33,4.77-2.16,11.44-3.24,20-3.24s15.23,1.08,20,3.24c4.77,2.16,8.15,5.61,10.15,10.33,2,4.73,3,11.21,3,19.45s-1,14.72-3,19.44c-2,4.73-5.38,8.17-10.15,10.34-4.77,2.16-11.43,3.24-20,3.24s-15.22-1.08-20-3.24ZM422.41,333.43c.45-.86.73-2.46.86-4.83.12-2.36.18-6.85.18-13.45,0-5.87-.06-9.97-.18-12.29s-.43-3.87-.92-4.65c-.49-.77-1.3-1.16-2.45-1.16s-1.96.39-2.44,1.16c-.49.78-.8,2.32-.92,4.65-.12,2.32-.18,6.42-.18,12.29,0,6.6.06,11.09.18,13.45.12,2.37.41,3.97.86,4.83s1.28,1.28,2.51,1.28,2.06-.43,2.51-1.28Z"/>
    <path class="cls-1" d="M463.93,346.09c-2.69-1.88-4.57-5.1-5.63-9.66-1.06-4.57-1.59-11.21-1.59-19.94,0-9.7.45-16.88,1.35-21.53.9-4.65,2.59-7.83,5.07-9.54,2.49-1.71,6.3-2.57,11.44-2.57,4.73,0,8.56,1.4,11.5,4.22,2.94,2.81,4.93,6.99,5.99,12.53h3.43v28.13h-3.43l-2.57,17.49c-1.06,1.06-2.94,1.94-5.63,2.63-2.69.69-5.46,1.04-8.31,1.04-5.06,0-8.93-.94-11.62-2.81ZM491.87,325.18c.45-.49.75-1.55.92-3.18.16-1.63.25-4.32.25-8.07,0-3.42-.08-5.85-.25-7.28-.16-1.43-.47-2.36-.92-2.81s-1.2-.67-2.26-.67-1.82.25-2.26.73-.75,1.45-.92,2.88c-.17,1.43-.25,3.81-.25,7.15,0,3.59.08,6.2.25,7.83.16,1.63.47,2.73.92,3.3.45.57,1.2.86,2.26.86s1.81-.25,2.26-.73ZM493.03,327.75v-68.12h29.47v86.83h-28.62l-.86-18.71Z"/>
    <path class="cls-1" d="M592.7,285.31h47.57v7.09h-47.57v-7.09ZM599.61,335.64c-.61-5.26-.96-12.78-1.04-22.56v-43.66h29.47v47.33c0,7.18.14,12.41.43,15.72.28,3.3.9,5.89,1.83,7.77.94,1.88,2.51,3.95,4.71,6.24h-31.55c-1.96-1.96-3.24-5.56-3.85-10.82Z"/>
    <path class="cls-1" d="M644.11,259.63h29.47v86.83h-29.47v-86.83Z"/>
    <path class="cls-1" d="M596.14,344.26c-1.26.88-2.71,1.6-4.35,2.17-.49.17-.99.32-1.52.46-2.28.61-4.65.92-7.09.92-4.4,0-7.99-.69-10.76-2.08-2.77-1.38-4.81-3.55-6.11-6.48-1.31-2.94.65,1.2.65,1.2l-4.2,3.7c-1.63,1.39-3.93,2.53-6.91,3.42-2.98.9-6.01,1.35-9.11,1.35-4.65,0-8.34-.55-11.07-1.65-2.73-1.1-4.73-2.87-5.99-5.32-1.26-2.44-1.9-5.71-1.9-9.78s.69-7.32,2.08-9.72c1.39-2.4,3.63-4.16,6.73-5.26,3.1-1.1,7.26-1.65,12.47-1.65,2.69,0,5.46.27,8.32.8,2.85.53,5.09,1.2,6.73,2.02v-5.14c0-4.89-.31-8.19-.92-9.9-.61-1.71-1.82-2.57-3.61-2.57-1.14,0-2,.37-2.57,1.1-.57.73-.86,1.88-.86,3.42s.37,3.26,1.1,5.14h-26.05c-.08-.57-.12-1.91-.12-4.03,0-7.91,2.51-13.8,7.52-17.67,5.01-3.87,12.61-5.81,22.81-5.81,7.66,0,13.66.94,17.98,2.81,4.32,1.88,7.42,4.97,9.29,9.29,1.88,4.32,2.81,10.36,2.81,18.1v17.98c0,2.45.14,4.06.43,4.83.29.78.84,1.16,1.65,1.16.49,0,.94-.12,1.35-.37.41-.24.81-.57,1.22-.98,0,0,3.73-3.78,5.73-5.78,2-2,.99,9.09.99,9.09l-6.72,5.25ZM560.06,328.79c.81-.53,1.53-1.26,2.14-2.2s1-1.98,1.16-3.12c-.9-.32-1.8-.57-2.69-.73-.9-.16-1.67-.24-2.32-.24-.9,0-1.61.12-2.14.37-.53.25-.94.65-1.22,1.22-.29.57-.43,1.26-.43,2.08,0,1.14.24,2,.73,2.57.49.57,1.26.86,2.32.86.81,0,1.63-.26,2.45-.79Z"/>
    <path class="cls-1" d="M745.43,344.26c-1.63,1.14-3.59,2.02-5.87,2.63-2.28.61-4.65.92-7.09.92-4.4,0-7.99-.69-10.76-2.08-2.77-1.38-4.81-3.55-6.11-6.48-1.31-2.94.65,1.2.65,1.2l-4.2,3.7c-1.63,1.39-3.93,2.53-6.91,3.42-2.98.9-6.01,1.35-9.11,1.35-4.65,0-8.34-.55-11.07-1.65-2.73-1.1-4.73-2.87-5.99-5.32-1.26-2.44-1.9-5.71-1.9-9.78s.69-7.32,2.08-9.72c1.39-2.4,3.63-4.16,6.73-5.26,3.1-1.1,7.26-1.65,12.47-1.65,2.69,0,5.46.27,8.32.8,2.85.53,5.09,1.2,6.73,2.02v-5.14c0-4.89-.31-8.19-.92-9.9-.61-1.71-1.82-2.57-3.61-2.57-1.14,0-2,.37-2.57,1.1-.57.73-.86,1.88-.86,3.42s.37,3.26,1.1,5.14h-26.05c-.08-.57-.12-1.91-.12-4.03,0-7.91,2.51-13.8,7.52-17.67,5.01-3.87,12.61-5.81,22.81-5.81,7.66,0,13.66.94,17.98,2.81,4.32,1.88,7.42,4.97,9.29,9.29,1.88,4.32,2.81,10.36,2.81,18.1v17.98c0,2.45.14,4.06.43,4.83.29.78.84,1.16,1.65,1.16.49,0,.94-.12,1.35-.37.41-.24.81-.57,1.22-.98,0,0,3.73-3.78,5.73-5.78,2-2,.99,9.09.99,9.09l-6.72,5.25ZM709.35,328.79c.81-.53,1.53-1.26,2.14-2.2.61-.94,1-1.98,1.16-3.12-.9-.32-1.8-.57-2.69-.73-.9-.16-1.67-.24-2.32-.24-.9,0-1.61.12-2.14.37-.53.25-.94.65-1.22,1.22-.29.57-.43,1.26-.43,2.08,0,1.14.24,2,.73,2.57.49.57,1.26.86,2.32.86.81,0,1.63-.26,2.45-.79Z"/>
    <path class="cls-1" d="M753.66,344.19c-6.12-2.89-9.17-8.46-9.17-16.69,0-1.06.04-1.87.12-2.44h28.5c-.65,1.3-.98,3.22-.98,5.75,0,1.88.28,3.24.85,4.1s1.47,1.28,2.69,1.28c.65,0,1.26-.14,1.83-.43s1.02-.8,1.34-1.53c.33-.73.49-1.71.49-2.94,0-1.96-.45-3.53-1.34-4.71-.9-1.18-2.28-2.2-4.16-3.06-1.88-.86-4.81-1.94-8.81-3.24-5.06-1.63-8.89-3.1-11.5-4.4-2.61-1.3-4.65-3.04-6.12-5.2-1.47-2.16-2.2-5.08-2.2-8.75,0-7.58,2.57-12.72,7.71-15.41,5.14-2.69,12.23-4.03,21.28-4.03,6.85,0,12.7.49,17.55,1.47,4.85.98,8.79,2.94,11.8,5.87,3.02,2.94,4.53,7.22,4.53,12.84,0,1.14-.04,2-.12,2.57h-28.86c.73-1.47,1.1-3.3,1.1-5.5,0-1.87-.27-3.24-.8-4.1-.53-.85-1.36-1.28-2.51-1.28-.73,0-1.32.14-1.77.43s-.82.84-1.1,1.65c-.29.82-.43,1.96-.43,3.42,0,1.96.47,3.55,1.4,4.77.94,1.22,2.46,2.32,4.59,3.3,2.12.98,5.54,2.28,10.27,3.91,5.14,1.79,9.07,3.55,11.8,5.26,2.73,1.71,4.65,3.61,5.75,5.69,1.1,2.08,1.65,4.67,1.65,7.77,0,4.89-1.43,8.67-4.28,11.31-2.86,2.65-6.52,4.42-11.01,5.32-4.49.9-9.7,1.35-15.66,1.35-10.19,0-18.34-1.45-24.46-4.34Z"/>
  </g>
</svg>