<?xml version="1.0" encoding="UTF-8"?>
<svg id="Camada_1" xmlns="http://www.w3.org/2000/svg" viewBox="0 0 1080 617.29">
  <path d="M165.34,283.95h63.86v9.88h-63.86v-9.88ZM178.71,259.09c3.46-5.68,7.95-9.48,13.45-11.41,5.51-1.93,12.01-2.89,19.5-2.89,3.29,0,6.84.29,10.64.85,3.8.57,6.67,1.31,8.6,2.21v18.73c-.8-.68-1.85-1.22-3.15-1.61s-2.64-.6-4-.6c-3.3,0-5.65,1.08-7.07,3.23-1.42,2.16-2.13,6.08-2.13,11.75v89.75h-41.04v-85.83c0-10.44,1.73-18.5,5.19-24.18Z"/>
  <path d="M247.51,368c-6.64-3.01-11.35-7.8-14.13-14.39-2.78-6.58-4.17-15.61-4.17-27.08s1.39-20.49,4.17-27.08c2.78-6.58,7.49-11.38,14.13-14.39,6.64-3.01,15.92-4.51,27.84-4.51s21.2,1.51,27.84,4.51c6.64,3.01,11.35,7.81,14.14,14.39,2.78,6.59,4.17,15.61,4.17,27.08s-1.39,20.49-4.17,27.08c-2.79,6.59-7.49,11.38-14.14,14.39-6.64,3.01-15.92,4.51-27.84,4.51s-21.2-1.51-27.84-4.51ZM278.84,350.96c.62-1.19,1.02-3.43,1.19-6.73.17-3.29.25-9.53.25-18.73,0-8.17-.08-13.88-.25-17.12s-.6-5.39-1.28-6.47c-.68-1.08-1.82-1.62-3.41-1.62s-2.72.54-3.4,1.62c-.68,1.08-1.11,3.24-1.28,6.47-.17,3.24-.25,8.94-.25,17.12,0,9.2.09,15.44.25,18.73.17,3.3.57,5.53,1.19,6.73s1.79,1.79,3.49,1.79,2.87-.6,3.49-1.79Z"/>
  <path d="M344.92,368c-6.64-3.01-11.35-7.8-14.13-14.39-2.78-6.58-4.17-15.61-4.17-27.08s1.39-20.49,4.17-27.08c2.78-6.58,7.49-11.38,14.13-14.39,6.64-3.01,15.92-4.51,27.84-4.51s21.2,1.51,27.84,4.51c6.64,3.01,11.35,7.81,14.14,14.39,2.78,6.59,4.17,15.61,4.17,27.08s-1.39,20.49-4.17,27.08c-2.79,6.59-7.49,11.38-14.14,14.39-6.64,3.01-15.92,4.51-27.84,4.51s-21.2-1.51-27.84-4.51ZM376.25,350.96c.62-1.19,1.02-3.43,1.19-6.73.17-3.29.25-9.53.25-18.73,0-8.17-.08-13.88-.25-17.12s-.6-5.39-1.28-6.47c-.68-1.08-1.82-1.62-3.41-1.62s-2.72.54-3.4,1.62c-.68,1.08-1.11,3.24-1.28,6.47-.17,3.24-.25,8.94-.25,17.12,0,9.2.09,15.44.25,18.73.17,3.3.57,5.53,1.19,6.73s1.79,1.79,3.49,1.79,2.87-.6,3.49-1.79Z"/>
  <path d="M434.07,368.59c-3.75-2.61-6.36-7.1-7.84-13.45-1.48-6.36-2.21-15.61-2.21-27.76,0-13.51.62-23.5,1.88-29.97,1.25-6.47,3.6-10.9,7.07-13.28,3.46-2.38,8.77-3.57,15.92-3.57,6.58,0,11.92,1.96,16.01,5.88,4.09,3.92,6.87,9.73,8.35,17.45h4.77v39.17h-4.77l-3.57,24.35c-1.48,1.48-4.09,2.7-7.84,3.66-3.75.96-7.61,1.45-11.58,1.45-7.04,0-12.43-1.31-16.18-3.92ZM472.98,339.47c.62-.68,1.05-2.16,1.28-4.43.23-2.27.34-6.02.34-11.24,0-4.77-.12-8.14-.34-10.13-.23-1.98-.65-3.29-1.28-3.92-.62-.62-1.68-.94-3.15-.94s-2.53.34-3.15,1.02-1.05,2.02-1.28,4c-.23,1.99-.34,5.31-.34,9.96,0,5,.11,8.63.34,10.9.23,2.27.65,3.8,1.28,4.6.62.8,1.67,1.19,3.15,1.19s2.52-.34,3.15-1.02ZM474.6,343.05v-94.86h41.04v120.91h-39.85l-1.19-26.05Z"/>
  <path d="M613.39,283.95h66.25v9.88h-66.25v-9.88ZM623.01,354.03c-.85-7.32-1.34-17.8-1.45-31.42v-60.8h41.04v65.91c0,9.99.2,17.28.6,21.88.39,4.6,1.25,8.2,2.55,10.81,1.3,2.61,3.49,5.51,6.56,8.68h-43.94c-2.72-2.72-4.51-7.75-5.36-15.07Z"/>
  <path d="M684.98,248.19h41.04v120.91h-41.04v-120.91Z"/>
  <path d="M618.17,366.04c-1.75,1.23-3.77,2.23-6.06,3.02-.68.23-1.38.45-2.11.64-3.18.85-6.47,1.28-9.88,1.28-6.13,0-11.13-.97-14.99-2.89-3.86-1.93-6.7-4.94-8.51-9.03-1.82-4.09.91,1.66.91,1.66l-5.85,5.15c-2.27,1.93-5.48,3.52-9.62,4.77s-8.37,1.88-12.69,1.88c-6.47,0-11.61-.77-15.41-2.3-3.8-1.53-6.59-4-8.35-7.41-1.76-3.4-2.64-7.94-2.64-13.62s.96-10.19,2.89-13.54c1.93-3.35,5.05-5.79,9.37-7.32,4.31-1.53,10.1-2.3,17.37-2.3,3.75,0,7.61.37,11.58,1.11,3.97.74,7.09,1.67,9.37,2.81v-7.15c0-6.81-.43-11.41-1.28-13.79-.85-2.39-2.53-3.58-5.02-3.58-1.59,0-2.78.51-3.58,1.53s-1.19,2.61-1.19,4.77.51,4.54,1.53,7.15h-36.28c-.11-.79-.17-2.66-.17-5.62,0-11.01,3.49-19.22,10.47-24.61,6.98-5.39,17.57-8.09,31.76-8.09,10.67,0,19.02,1.3,25.04,3.92,6.02,2.61,10.33,6.93,12.94,12.94,2.61,6.02,3.92,14.42,3.92,25.21v25.03c0,3.41.2,5.65.6,6.73.4,1.08,1.16,1.62,2.3,1.62.68,0,1.3-.17,1.88-.51.56-.34,1.13-.79,1.7-1.36,0,0,5.2-5.27,7.98-8.05,2.78-2.78,1.38,12.66,1.38,12.66l-9.36,7.31ZM567.93,344.5c1.13-.74,2.13-1.76,2.98-3.07.85-1.3,1.39-2.75,1.62-4.35-1.25-.45-2.5-.79-3.75-1.02-1.25-.22-2.33-.34-3.24-.34-1.25,0-2.24.17-2.98.51-.74.34-1.31.91-1.7,1.71-.4.8-.6,1.76-.6,2.89,0,1.59.34,2.78,1.02,3.57.68.8,1.76,1.19,3.23,1.19,1.13,0,2.27-.37,3.41-1.11Z"/>
  <path d="M826.06,366.04c-2.27,1.59-5,2.81-8.17,3.66-3.18.85-6.47,1.28-9.88,1.28-6.13,0-11.13-.97-14.99-2.89-3.86-1.93-6.7-4.94-8.51-9.03-1.82-4.09.91,1.66.91,1.66l-5.85,5.15c-2.27,1.93-5.48,3.52-9.62,4.77-4.14,1.25-8.37,1.88-12.69,1.88-6.47,0-11.61-.77-15.41-2.3-3.8-1.53-6.59-4-8.35-7.41-1.76-3.4-2.64-7.94-2.64-13.62s.96-10.19,2.89-13.54c1.93-3.35,5.05-5.79,9.37-7.32,4.31-1.53,10.1-2.3,17.37-2.3,3.75,0,7.61.37,11.58,1.11,3.97.74,7.09,1.67,9.37,2.81v-7.15c0-6.81-.43-11.41-1.28-13.79-.85-2.39-2.53-3.58-5.02-3.58-1.59,0-2.78.51-3.58,1.53s-1.19,2.61-1.19,4.77.51,4.54,1.53,7.15h-36.28c-.11-.79-.17-2.66-.17-5.62,0-11.01,3.49-19.22,10.47-24.61,6.98-5.39,17.57-8.09,31.76-8.09,10.67,0,19.02,1.3,25.04,3.92,6.02,2.61,10.33,6.93,12.94,12.94,2.61,6.02,3.92,14.42,3.92,25.21v25.03c0,3.41.2,5.65.6,6.73.4,1.08,1.16,1.62,2.3,1.62.68,0,1.3-.17,1.88-.51.56-.34,1.13-.79,1.7-1.36,0,0,5.2-5.27,7.98-8.05,2.78-2.78,1.38,12.66,1.38,12.66l-9.36,7.31ZM775.82,344.5c1.13-.74,2.13-1.76,2.98-3.07.85-1.3,1.39-2.75,1.62-4.35-1.25-.45-2.5-.79-3.75-1.02-1.25-.22-2.33-.34-3.24-.34-1.25,0-2.24.17-2.98.51-.74.34-1.31.91-1.7,1.71-.4.8-.6,1.76-.6,2.89,0,1.59.34,2.78,1.02,3.57.68.8,1.76,1.19,3.23,1.19,1.13,0,2.27-.37,3.41-1.11Z"/>
  <path d="M837.52,365.94c-8.52-4.03-12.77-11.78-12.77-23.25,0-1.47.06-2.61.17-3.4h39.68c-.91,1.82-1.36,4.48-1.36,8,0,2.61.39,4.51,1.19,5.71.8,1.19,2.04,1.79,3.75,1.79.91,0,1.76-.2,2.55-.6s1.42-1.11,1.87-2.13.68-2.38.68-4.09c0-2.72-.63-4.91-1.87-6.56-1.25-1.64-3.18-3.07-5.79-4.26-2.61-1.19-6.7-2.7-12.26-4.51-7.04-2.27-12.38-4.31-16.01-6.13-3.63-1.81-6.47-4.23-8.52-7.24-2.04-3.01-3.07-7.07-3.07-12.18,0-10.56,3.58-17.71,10.73-21.46,7.15-3.75,17.03-5.62,29.63-5.62,9.53,0,17.68.68,24.44,2.04,6.76,1.36,12.23,4.09,16.44,8.17,4.2,4.09,6.3,10.05,6.3,17.88,0,1.59-.06,2.78-.17,3.58h-40.19c1.02-2.04,1.53-4.6,1.53-7.67,0-2.61-.37-4.51-1.11-5.71-.74-1.19-1.9-1.79-3.49-1.79-1.02,0-1.84.2-2.47.6s-1.14,1.16-1.53,2.3c-.4,1.14-.6,2.72-.6,4.77,0,2.72.65,4.94,1.96,6.64,1.3,1.7,3.43,3.23,6.39,4.6,2.95,1.36,7.72,3.18,14.31,5.45,7.15,2.5,12.63,4.94,16.44,7.32,3.8,2.38,6.47,5.02,8,7.92,1.53,2.89,2.3,6.5,2.3,10.81,0,6.81-1.99,12.07-5.96,15.75-3.98,3.69-9.08,6.16-15.33,7.41-6.25,1.25-13.51,1.88-21.8,1.88-14.19,0-25.55-2.02-34.06-6.05Z"/>
</svg>